<mxfile host="Electron" modified="2023-11-21T15:23:04.230Z" agent="Mozilla/5.0 (Windows NT 10.0; Win64; x64) AppleWebKit/537.36 (KHTML, like Gecko) draw.io/22.1.2 Chrome/114.0.5735.289 Electron/25.9.4 Safari/537.36" etag="85xsvndFq_VhR3k1BM8E" version="22.1.2" type="device">
  <diagram name="第 1 页" id="thpbFXfwcJw1ZEVnWx6r">
    <mxGraphModel dx="2669" dy="2822" grid="1" gridSize="10" guides="1" tooltips="1" connect="1" arrows="1" fold="1" page="1" pageScale="1" pageWidth="827" pageHeight="1169" math="0" shadow="0">
      <root>
        <mxCell id="0" />
        <mxCell id="1" parent="0" />
        <mxCell id="WRi-JUvHWAIsA3Zpq9P--43" value="Game" style="swimlane;fontStyle=1;align=center;verticalAlign=top;childLayout=stackLayout;horizontal=1;startSize=26;horizontalStack=0;resizeParent=1;resizeParentMax=0;resizeLast=0;collapsible=1;marginBottom=0;whiteSpace=wrap;html=1;rounded=1;glass=0;shadow=1;swimlaneLine=1;fillStyle=auto;swimlaneFillColor=none;gradientColor=none;" parent="1" vertex="1">
          <mxGeometry x="530" y="520" width="350" height="458" as="geometry" />
        </mxCell>
        <mxCell id="WRi-JUvHWAIsA3Zpq9P--44" value="-&amp;nbsp; fGameStrategyContext: GameStrategyContext" style="text;strokeColor=none;fillColor=none;align=left;verticalAlign=top;spacingLeft=4;spacingRight=4;overflow=hidden;rotatable=0;points=[[0,0.5],[1,0.5]];portConstraint=eastwest;whiteSpace=wrap;html=1;" parent="WRi-JUvHWAIsA3Zpq9P--43" vertex="1">
          <mxGeometry y="26" width="350" height="34" as="geometry" />
        </mxCell>
        <mxCell id="WRi-JUvHWAIsA3Zpq9P--48" value="-&amp;nbsp; status :GameStatus" style="text;strokeColor=none;fillColor=none;align=left;verticalAlign=top;spacingLeft=4;spacingRight=4;overflow=hidden;rotatable=0;points=[[0,0.5],[1,0.5]];portConstraint=eastwest;whiteSpace=wrap;html=1;" parent="WRi-JUvHWAIsA3Zpq9P--43" vertex="1">
          <mxGeometry y="60" width="350" height="26" as="geometry" />
        </mxCell>
        <mxCell id="WRi-JUvHWAIsA3Zpq9P--57" value="- BallsToRemove:List&amp;lt;Ball&amp;gt;" style="text;strokeColor=none;fillColor=none;align=left;verticalAlign=top;spacingLeft=4;spacingRight=4;overflow=hidden;rotatable=0;points=[[0,0.5],[1,0.5]];portConstraint=eastwest;whiteSpace=wrap;html=1;" parent="WRi-JUvHWAIsA3Zpq9P--43" vertex="1">
          <mxGeometry y="86" width="350" height="26" as="geometry" />
        </mxCell>
        <mxCell id="WRi-JUvHWAIsA3Zpq9P--56" value="- balls :Balls" style="text;strokeColor=none;fillColor=none;align=left;verticalAlign=top;spacingLeft=4;spacingRight=4;overflow=hidden;rotatable=0;points=[[0,0.5],[1,0.5]];portConstraint=eastwest;whiteSpace=wrap;html=1;" parent="WRi-JUvHWAIsA3Zpq9P--43" vertex="1">
          <mxGeometry y="112" width="350" height="26" as="geometry" />
        </mxCell>
        <mxCell id="WRi-JUvHWAIsA3Zpq9P--55" value="- table:Table" style="text;strokeColor=none;fillColor=none;align=left;verticalAlign=top;spacingLeft=4;spacingRight=4;overflow=hidden;rotatable=0;points=[[0,0.5],[1,0.5]];portConstraint=eastwest;whiteSpace=wrap;html=1;" parent="WRi-JUvHWAIsA3Zpq9P--43" vertex="1">
          <mxGeometry y="138" width="350" height="26" as="geometry" />
        </mxCell>
        <mxCell id="WRi-JUvHWAIsA3Zpq9P--61" value="- canvas :Canvas" style="text;strokeColor=none;fillColor=none;align=left;verticalAlign=top;spacingLeft=4;spacingRight=4;overflow=hidden;rotatable=0;points=[[0,0.5],[1,0.5]];portConstraint=eastwest;whiteSpace=wrap;html=1;" parent="WRi-JUvHWAIsA3Zpq9P--43" vertex="1">
          <mxGeometry y="164" width="350" height="26" as="geometry" />
        </mxCell>
        <mxCell id="WRi-JUvHWAIsA3Zpq9P--60" value="- rootDrawables:Drawable" style="text;strokeColor=none;fillColor=none;align=left;verticalAlign=top;spacingLeft=4;spacingRight=4;overflow=hidden;rotatable=0;points=[[0,0.5],[1,0.5]];portConstraint=eastwest;whiteSpace=wrap;html=1;" parent="WRi-JUvHWAIsA3Zpq9P--43" vertex="1">
          <mxGeometry y="190" width="350" height="26" as="geometry" />
        </mxCell>
        <mxCell id="WRi-JUvHWAIsA3Zpq9P--59" value="- movables :List&amp;lt;Movable&amp;gt;" style="text;strokeColor=none;fillColor=none;align=left;verticalAlign=top;spacingLeft=4;spacingRight=4;overflow=hidden;rotatable=0;points=[[0,0.5],[1,0.5]];portConstraint=eastwest;whiteSpace=wrap;html=1;" parent="WRi-JUvHWAIsA3Zpq9P--43" vertex="1">
          <mxGeometry y="216" width="350" height="26" as="geometry" />
        </mxCell>
        <mxCell id="WRi-JUvHWAIsA3Zpq9P--45" value="" style="line;strokeWidth=1;fillColor=none;align=left;verticalAlign=middle;spacingTop=-1;spacingLeft=3;spacingRight=3;rotatable=0;labelPosition=right;points=[];portConstraint=eastwest;strokeColor=inherit;" parent="WRi-JUvHWAIsA3Zpq9P--43" vertex="1">
          <mxGeometry y="242" width="350" height="8" as="geometry" />
        </mxCell>
        <mxCell id="WRi-JUvHWAIsA3Zpq9P--46" value="+ Game(Canvas): Game" style="text;strokeColor=none;fillColor=none;align=left;verticalAlign=top;spacingLeft=4;spacingRight=4;overflow=hidden;rotatable=0;points=[[0,0.5],[1,0.5]];portConstraint=eastwest;whiteSpace=wrap;html=1;" parent="WRi-JUvHWAIsA3Zpq9P--43" vertex="1">
          <mxGeometry y="250" width="350" height="26" as="geometry" />
        </mxCell>
        <mxCell id="kTUbh2zk2raWH5aTBtC5-109" value="Use" style="endArrow=open;endSize=12;dashed=1;html=1;rounded=0;entryX=0.333;entryY=0.297;entryDx=0;entryDy=0;entryPerimeter=0;" edge="1" parent="WRi-JUvHWAIsA3Zpq9P--43" target="kTUbh2zk2raWH5aTBtC5-90">
          <mxGeometry width="160" relative="1" as="geometry">
            <mxPoint x="340" y="280" as="sourcePoint" />
            <mxPoint x="500" y="280" as="targetPoint" />
          </mxGeometry>
        </mxCell>
        <mxCell id="WRi-JUvHWAIsA3Zpq9P--66" value="+ gameOver() :void&lt;span style=&quot;white-space: pre;&quot;&gt;&#x9;&lt;/span&gt;" style="text;strokeColor=none;fillColor=none;align=left;verticalAlign=top;spacingLeft=4;spacingRight=4;overflow=hidden;rotatable=0;points=[[0,0.5],[1,0.5]];portConstraint=eastwest;whiteSpace=wrap;html=1;" parent="WRi-JUvHWAIsA3Zpq9P--43" vertex="1">
          <mxGeometry y="276" width="350" height="26" as="geometry" />
        </mxCell>
        <mxCell id="WRi-JUvHWAIsA3Zpq9P--65" value="+ scheduleToRemove(Ball)" style="text;strokeColor=none;fillColor=none;align=left;verticalAlign=top;spacingLeft=4;spacingRight=4;overflow=hidden;rotatable=0;points=[[0,0.5],[1,0.5]];portConstraint=eastwest;whiteSpace=wrap;html=1;" parent="WRi-JUvHWAIsA3Zpq9P--43" vertex="1">
          <mxGeometry y="302" width="350" height="26" as="geometry" />
        </mxCell>
        <mxCell id="WRi-JUvHWAIsA3Zpq9P--64" value="+ gameSucess() :void" style="text;strokeColor=none;fillColor=none;align=left;verticalAlign=top;spacingLeft=4;spacingRight=4;overflow=hidden;rotatable=0;points=[[0,0.5],[1,0.5]];portConstraint=eastwest;whiteSpace=wrap;html=1;" parent="WRi-JUvHWAIsA3Zpq9P--43" vertex="1">
          <mxGeometry y="328" width="350" height="26" as="geometry" />
        </mxCell>
        <mxCell id="WRi-JUvHWAIsA3Zpq9P--63" value="- resetGame()&amp;nbsp; &amp;nbsp; &amp;nbsp;: void" style="text;strokeColor=none;fillColor=none;align=left;verticalAlign=top;spacingLeft=4;spacingRight=4;overflow=hidden;rotatable=0;points=[[0,0.5],[1,0.5]];portConstraint=eastwest;whiteSpace=wrap;html=1;" parent="WRi-JUvHWAIsA3Zpq9P--43" vertex="1">
          <mxGeometry y="354" width="350" height="26" as="geometry" />
        </mxCell>
        <mxCell id="WRi-JUvHWAIsA3Zpq9P--62" value="+addDrawables(Group):void" style="text;strokeColor=none;fillColor=none;align=left;verticalAlign=top;spacingLeft=4;spacingRight=4;overflow=hidden;rotatable=0;points=[[0,0.5],[1,0.5]];portConstraint=eastwest;whiteSpace=wrap;html=1;" parent="WRi-JUvHWAIsA3Zpq9P--43" vertex="1">
          <mxGeometry y="380" width="350" height="26" as="geometry" />
        </mxCell>
        <mxCell id="WRi-JUvHWAIsA3Zpq9P--68" value="+ removeBalls():void&lt;span style=&quot;white-space: pre;&quot;&gt;&#x9;&lt;/span&gt;" style="text;strokeColor=none;fillColor=none;align=left;verticalAlign=top;spacingLeft=4;spacingRight=4;overflow=hidden;rotatable=0;points=[[0,0.5],[1,0.5]];portConstraint=eastwest;whiteSpace=wrap;html=1;" parent="WRi-JUvHWAIsA3Zpq9P--43" vertex="1">
          <mxGeometry y="406" width="350" height="26" as="geometry" />
        </mxCell>
        <mxCell id="WRi-JUvHWAIsA3Zpq9P--67" value="+ tick():void" style="text;strokeColor=none;fillColor=none;align=left;verticalAlign=top;spacingLeft=4;spacingRight=4;overflow=hidden;rotatable=0;points=[[0,0.5],[1,0.5]];portConstraint=eastwest;whiteSpace=wrap;html=1;" parent="WRi-JUvHWAIsA3Zpq9P--43" vertex="1">
          <mxGeometry y="432" width="350" height="26" as="geometry" />
        </mxCell>
        <mxCell id="WRi-JUvHWAIsA3Zpq9P--69" value="&lt;p style=&quot;margin:0px;margin-top:4px;text-align:center;&quot;&gt;&lt;i&gt;&amp;lt;&amp;lt;Interface&amp;gt;&amp;gt;&lt;/i&gt;&lt;br&gt;&lt;b&gt;GameObject&lt;/b&gt;&lt;/p&gt;&lt;p style=&quot;margin:0px;margin-left:4px;&quot;&gt;&lt;br&gt;&lt;/p&gt;&lt;hr size=&quot;1&quot;&gt;&lt;p style=&quot;margin:0px;margin-left:4px;&quot;&gt;&lt;br&gt;&lt;/p&gt;" style="verticalAlign=top;align=left;overflow=fill;fontSize=12;fontFamily=Helvetica;html=1;whiteSpace=wrap;" parent="1" vertex="1">
          <mxGeometry x="510" y="260" width="190" height="50" as="geometry" />
        </mxCell>
        <mxCell id="WRi-JUvHWAIsA3Zpq9P--70" value="Balls" style="swimlane;fontStyle=1;align=center;verticalAlign=top;childLayout=stackLayout;horizontal=1;startSize=26;horizontalStack=0;resizeParent=1;resizeParentMax=0;resizeLast=0;collapsible=1;marginBottom=0;whiteSpace=wrap;html=1;" parent="1" vertex="1">
          <mxGeometry x="60" y="50" width="160" height="166" as="geometry" />
        </mxCell>
        <mxCell id="WRi-JUvHWAIsA3Zpq9P--71" value="- balls: List&amp;lt;Ball&amp;gt;" style="text;strokeColor=none;fillColor=none;align=left;verticalAlign=top;spacingLeft=4;spacingRight=4;overflow=hidden;rotatable=0;points=[[0,0.5],[1,0.5]];portConstraint=eastwest;whiteSpace=wrap;html=1;" parent="WRi-JUvHWAIsA3Zpq9P--70" vertex="1">
          <mxGeometry y="26" width="160" height="26" as="geometry" />
        </mxCell>
        <mxCell id="WRi-JUvHWAIsA3Zpq9P--72" value="" style="line;strokeWidth=1;fillColor=none;align=left;verticalAlign=middle;spacingTop=-1;spacingLeft=3;spacingRight=3;rotatable=0;labelPosition=right;points=[];portConstraint=eastwest;strokeColor=inherit;" parent="WRi-JUvHWAIsA3Zpq9P--70" vertex="1">
          <mxGeometry y="52" width="160" height="8" as="geometry" />
        </mxCell>
        <mxCell id="WRi-JUvHWAIsA3Zpq9P--73" value="+ addBall(Ball): void" style="text;strokeColor=none;fillColor=none;align=left;verticalAlign=top;spacingLeft=4;spacingRight=4;overflow=hidden;rotatable=0;points=[[0,0.5],[1,0.5]];portConstraint=eastwest;whiteSpace=wrap;html=1;" parent="WRi-JUvHWAIsA3Zpq9P--70" vertex="1">
          <mxGeometry y="60" width="160" height="26" as="geometry" />
        </mxCell>
        <mxCell id="WRi-JUvHWAIsA3Zpq9P--77" value="+ addToGroup(ObsevableList&amp;lt;Node&amp;gt;)" style="text;strokeColor=none;fillColor=none;align=left;verticalAlign=top;spacingLeft=4;spacingRight=4;overflow=hidden;rotatable=0;points=[[0,0.5],[1,0.5]];portConstraint=eastwest;whiteSpace=wrap;html=1;" parent="WRi-JUvHWAIsA3Zpq9P--70" vertex="1">
          <mxGeometry y="86" width="160" height="54" as="geometry" />
        </mxCell>
        <mxCell id="WRi-JUvHWAIsA3Zpq9P--76" value="+ getBalls():List&amp;lt;Movable&amp;gt;" style="text;strokeColor=none;fillColor=none;align=left;verticalAlign=top;spacingLeft=4;spacingRight=4;overflow=hidden;rotatable=0;points=[[0,0.5],[1,0.5]];portConstraint=eastwest;whiteSpace=wrap;html=1;" parent="WRi-JUvHWAIsA3Zpq9P--70" vertex="1">
          <mxGeometry y="140" width="160" height="26" as="geometry" />
        </mxCell>
        <mxCell id="WRi-JUvHWAIsA3Zpq9P--79" value="" style="endArrow=block;dashed=1;endFill=0;endSize=12;html=1;rounded=0;entryX=0.5;entryY=0;entryDx=0;entryDy=0;exitX=1;exitY=0.5;exitDx=0;exitDy=0;" parent="1" source="WRi-JUvHWAIsA3Zpq9P--77" target="WRi-JUvHWAIsA3Zpq9P--69" edge="1">
          <mxGeometry width="160" relative="1" as="geometry">
            <mxPoint x="124" y="222" as="sourcePoint" />
            <mxPoint x="360" y="410" as="targetPoint" />
          </mxGeometry>
        </mxCell>
        <mxCell id="WRi-JUvHWAIsA3Zpq9P--80" value="Table" style="swimlane;fontStyle=1;align=center;verticalAlign=top;childLayout=stackLayout;horizontal=1;startSize=26;horizontalStack=0;resizeParent=1;resizeParentMax=0;resizeLast=0;collapsible=1;marginBottom=0;whiteSpace=wrap;html=1;" parent="1" vertex="1">
          <mxGeometry x="1210" y="40" width="160" height="376" as="geometry" />
        </mxCell>
        <mxCell id="WRi-JUvHWAIsA3Zpq9P--81" value="- tableBounds: Bounds" style="text;strokeColor=none;fillColor=none;align=left;verticalAlign=top;spacingLeft=4;spacingRight=4;overflow=hidden;rotatable=0;points=[[0,0.5],[1,0.5]];portConstraint=eastwest;whiteSpace=wrap;html=1;" parent="WRi-JUvHWAIsA3Zpq9P--80" vertex="1">
          <mxGeometry y="26" width="160" height="26" as="geometry" />
        </mxCell>
        <mxCell id="WRi-JUvHWAIsA3Zpq9P--86" value="- fcolor :GameColor" style="text;strokeColor=none;fillColor=none;align=left;verticalAlign=top;spacingLeft=4;spacingRight=4;overflow=hidden;rotatable=0;points=[[0,0.5],[1,0.5]];portConstraint=eastwest;whiteSpace=wrap;html=1;" parent="WRi-JUvHWAIsA3Zpq9P--80" vertex="1">
          <mxGeometry y="52" width="160" height="26" as="geometry" />
        </mxCell>
        <mxCell id="WRi-JUvHWAIsA3Zpq9P--85" value="- friction :double" style="text;strokeColor=none;fillColor=none;align=left;verticalAlign=top;spacingLeft=4;spacingRight=4;overflow=hidden;rotatable=0;points=[[0,0.5],[1,0.5]];portConstraint=eastwest;whiteSpace=wrap;html=1;" parent="WRi-JUvHWAIsA3Zpq9P--80" vertex="1">
          <mxGeometry y="78" width="160" height="26" as="geometry" />
        </mxCell>
        <mxCell id="WRi-JUvHWAIsA3Zpq9P--84" value="- shape:Rectangle" style="text;strokeColor=none;fillColor=none;align=left;verticalAlign=top;spacingLeft=4;spacingRight=4;overflow=hidden;rotatable=0;points=[[0,0.5],[1,0.5]];portConstraint=eastwest;whiteSpace=wrap;html=1;" parent="WRi-JUvHWAIsA3Zpq9P--80" vertex="1">
          <mxGeometry y="104" width="160" height="26" as="geometry" />
        </mxCell>
        <mxCell id="WRi-JUvHWAIsA3Zpq9P--88" value="- PocketRadius :double" style="text;strokeColor=none;fillColor=none;align=left;verticalAlign=top;spacingLeft=4;spacingRight=4;overflow=hidden;rotatable=0;points=[[0,0.5],[1,0.5]];portConstraint=eastwest;whiteSpace=wrap;html=1;" parent="WRi-JUvHWAIsA3Zpq9P--80" vertex="1">
          <mxGeometry y="130" width="160" height="26" as="geometry" />
        </mxCell>
        <mxCell id="WRi-JUvHWAIsA3Zpq9P--87" value="- pockets :List&amp;lt;Circle&amp;gt;" style="text;strokeColor=none;fillColor=none;align=left;verticalAlign=top;spacingLeft=4;spacingRight=4;overflow=hidden;rotatable=0;points=[[0,0.5],[1,0.5]];portConstraint=eastwest;whiteSpace=wrap;html=1;" parent="WRi-JUvHWAIsA3Zpq9P--80" vertex="1">
          <mxGeometry y="156" width="160" height="26" as="geometry" />
        </mxCell>
        <mxCell id="WRi-JUvHWAIsA3Zpq9P--82" value="" style="line;strokeWidth=1;fillColor=none;align=left;verticalAlign=middle;spacingTop=-1;spacingLeft=3;spacingRight=3;rotatable=0;labelPosition=right;points=[];portConstraint=eastwest;strokeColor=inherit;" parent="WRi-JUvHWAIsA3Zpq9P--80" vertex="1">
          <mxGeometry y="182" width="160" height="8" as="geometry" />
        </mxCell>
        <mxCell id="WRi-JUvHWAIsA3Zpq9P--83" value="+ getColor(): GameColor" style="text;strokeColor=none;fillColor=none;align=left;verticalAlign=top;spacingLeft=4;spacingRight=4;overflow=hidden;rotatable=0;points=[[0,0.5],[1,0.5]];portConstraint=eastwest;whiteSpace=wrap;html=1;" parent="WRi-JUvHWAIsA3Zpq9P--80" vertex="1">
          <mxGeometry y="190" width="160" height="30" as="geometry" />
        </mxCell>
        <mxCell id="WRi-JUvHWAIsA3Zpq9P--90" value="+ addToGroup() :void" style="text;strokeColor=none;fillColor=none;align=left;verticalAlign=top;spacingLeft=4;spacingRight=4;overflow=hidden;rotatable=0;points=[[0,0.5],[1,0.5]];portConstraint=eastwest;whiteSpace=wrap;html=1;" parent="WRi-JUvHWAIsA3Zpq9P--80" vertex="1">
          <mxGeometry y="220" width="160" height="26" as="geometry" />
        </mxCell>
        <mxCell id="WRi-JUvHWAIsA3Zpq9P--89" value="+ initPockets(long,long)void" style="text;strokeColor=none;fillColor=none;align=left;verticalAlign=top;spacingLeft=4;spacingRight=4;overflow=hidden;rotatable=0;points=[[0,0.5],[1,0.5]];portConstraint=eastwest;whiteSpace=wrap;html=1;" parent="WRi-JUvHWAIsA3Zpq9P--80" vertex="1">
          <mxGeometry y="246" width="160" height="26" as="geometry" />
        </mxCell>
        <mxCell id="WRi-JUvHWAIsA3Zpq9P--92" value="+ getNode():Node" style="text;strokeColor=none;fillColor=none;align=left;verticalAlign=top;spacingLeft=4;spacingRight=4;overflow=hidden;rotatable=0;points=[[0,0.5],[1,0.5]];portConstraint=eastwest;whiteSpace=wrap;html=1;" parent="WRi-JUvHWAIsA3Zpq9P--80" vertex="1">
          <mxGeometry y="272" width="160" height="26" as="geometry" />
        </mxCell>
        <mxCell id="WRi-JUvHWAIsA3Zpq9P--91" value="+ getFricton() :double" style="text;strokeColor=none;fillColor=none;align=left;verticalAlign=top;spacingLeft=4;spacingRight=4;overflow=hidden;rotatable=0;points=[[0,0.5],[1,0.5]];portConstraint=eastwest;whiteSpace=wrap;html=1;" parent="WRi-JUvHWAIsA3Zpq9P--80" vertex="1">
          <mxGeometry y="298" width="160" height="26" as="geometry" />
        </mxCell>
        <mxCell id="WRi-JUvHWAIsA3Zpq9P--94" value="+ getBounds() :Bounds" style="text;strokeColor=none;fillColor=none;align=left;verticalAlign=top;spacingLeft=4;spacingRight=4;overflow=hidden;rotatable=0;points=[[0,0.5],[1,0.5]];portConstraint=eastwest;whiteSpace=wrap;html=1;" parent="WRi-JUvHWAIsA3Zpq9P--80" vertex="1">
          <mxGeometry y="324" width="160" height="26" as="geometry" />
        </mxCell>
        <mxCell id="WRi-JUvHWAIsA3Zpq9P--93" value="+ getPockets():List&amp;lt;Circle&amp;gt;" style="text;strokeColor=none;fillColor=none;align=left;verticalAlign=top;spacingLeft=4;spacingRight=4;overflow=hidden;rotatable=0;points=[[0,0.5],[1,0.5]];portConstraint=eastwest;whiteSpace=wrap;html=1;" parent="WRi-JUvHWAIsA3Zpq9P--80" vertex="1">
          <mxGeometry y="350" width="160" height="26" as="geometry" />
        </mxCell>
        <mxCell id="WRi-JUvHWAIsA3Zpq9P--95" value="" style="endArrow=block;dashed=1;endFill=0;endSize=12;html=1;rounded=0;exitX=0.005;exitY=1.225;exitDx=0;exitDy=0;exitPerimeter=0;entryX=0.5;entryY=0;entryDx=0;entryDy=0;" parent="1" source="WRi-JUvHWAIsA3Zpq9P--87" edge="1" target="WRi-JUvHWAIsA3Zpq9P--69">
          <mxGeometry width="160" relative="1" as="geometry">
            <mxPoint x="110" y="250" as="sourcePoint" />
            <mxPoint x="190" y="110" as="targetPoint" />
          </mxGeometry>
        </mxCell>
        <mxCell id="WRi-JUvHWAIsA3Zpq9P--96" value="&lt;p style=&quot;margin:0px;margin-top:4px;text-align:center;&quot;&gt;&lt;i&gt;&amp;lt;&amp;lt;Interface&amp;gt;&amp;gt;&lt;/i&gt;&lt;br&gt;&lt;b&gt;Interface&lt;/b&gt;&lt;/p&gt;&lt;p style=&quot;margin:0px;margin-left:4px;&quot;&gt;&lt;br&gt;&lt;/p&gt;&lt;hr size=&quot;1&quot;&gt;&lt;p style=&quot;margin:0px;margin-left:4px;&quot;&gt;+ getNode(): Node&lt;br&gt;+ addToGroup(Nodes): void&lt;/p&gt;" style="verticalAlign=top;align=left;overflow=fill;fontSize=12;fontFamily=Helvetica;html=1;whiteSpace=wrap;" parent="1" vertex="1">
          <mxGeometry x="530" y="-70" width="190" height="100" as="geometry" />
        </mxCell>
        <mxCell id="WRi-JUvHWAIsA3Zpq9P--97" value="" style="endArrow=block;dashed=1;endFill=0;endSize=12;html=1;rounded=0;exitX=0.544;exitY=-0.014;exitDx=0;exitDy=0;entryX=0;entryY=1;entryDx=0;entryDy=0;exitPerimeter=0;" parent="1" source="WRi-JUvHWAIsA3Zpq9P--70" target="WRi-JUvHWAIsA3Zpq9P--96" edge="1">
          <mxGeometry width="160" relative="1" as="geometry">
            <mxPoint x="110" y="250" as="sourcePoint" />
            <mxPoint x="195" y="120" as="targetPoint" />
          </mxGeometry>
        </mxCell>
        <mxCell id="WRi-JUvHWAIsA3Zpq9P--98" value="" style="endArrow=block;dashed=1;endFill=0;endSize=12;html=1;rounded=0;entryX=0.5;entryY=1;entryDx=0;entryDy=0;" parent="1" source="WRi-JUvHWAIsA3Zpq9P--80" target="WRi-JUvHWAIsA3Zpq9P--96" edge="1">
          <mxGeometry width="160" relative="1" as="geometry">
            <mxPoint x="117" y="248" as="sourcePoint" />
            <mxPoint x="380" y="160" as="targetPoint" />
            <Array as="points" />
          </mxGeometry>
        </mxCell>
        <mxCell id="kTUbh2zk2raWH5aTBtC5-1" value="Ball" style="swimlane;fontStyle=1;align=center;verticalAlign=top;childLayout=stackLayout;horizontal=1;startSize=26;horizontalStack=0;resizeParent=1;resizeParentMax=0;resizeLast=0;collapsible=1;marginBottom=0;whiteSpace=wrap;html=1;" vertex="1" parent="1">
          <mxGeometry x="30" y="760" width="280" height="866" as="geometry" />
        </mxCell>
        <mxCell id="kTUbh2zk2raWH5aTBtC5-2" value="- shape: Circle" style="text;strokeColor=none;fillColor=none;align=left;verticalAlign=top;spacingLeft=4;spacingRight=4;overflow=hidden;rotatable=0;points=[[0,0.5],[1,0.5]];portConstraint=eastwest;whiteSpace=wrap;html=1;" vertex="1" parent="kTUbh2zk2raWH5aTBtC5-1">
          <mxGeometry y="26" width="280" height="26" as="geometry" />
        </mxCell>
        <mxCell id="kTUbh2zk2raWH5aTBtC5-16" value="- DragLine:Line" style="text;strokeColor=none;fillColor=none;align=left;verticalAlign=top;spacingLeft=4;spacingRight=4;overflow=hidden;rotatable=0;points=[[0,0.5],[1,0.5]];portConstraint=eastwest;whiteSpace=wrap;html=1;" vertex="1" parent="kTUbh2zk2raWH5aTBtC5-1">
          <mxGeometry y="52" width="280" height="26" as="geometry" />
        </mxCell>
        <mxCell id="kTUbh2zk2raWH5aTBtC5-15" value="&amp;nbsp;- initialVelY:double" style="text;strokeColor=none;fillColor=none;align=left;verticalAlign=top;spacingLeft=4;spacingRight=4;overflow=hidden;rotatable=0;points=[[0,0.5],[1,0.5]];portConstraint=eastwest;whiteSpace=wrap;html=1;" vertex="1" parent="kTUbh2zk2raWH5aTBtC5-1">
          <mxGeometry y="78" width="280" height="26" as="geometry" />
        </mxCell>
        <mxCell id="kTUbh2zk2raWH5aTBtC5-14" value="- initialVelX:double" style="text;strokeColor=none;fillColor=none;align=left;verticalAlign=top;spacingLeft=4;spacingRight=4;overflow=hidden;rotatable=0;points=[[0,0.5],[1,0.5]];portConstraint=eastwest;whiteSpace=wrap;html=1;" vertex="1" parent="kTUbh2zk2raWH5aTBtC5-1">
          <mxGeometry y="104" width="280" height="26" as="geometry" />
        </mxCell>
        <mxCell id="kTUbh2zk2raWH5aTBtC5-13" value="- Radius :double" style="text;strokeColor=none;fillColor=none;align=left;verticalAlign=top;spacingLeft=4;spacingRight=4;overflow=hidden;rotatable=0;points=[[0,0.5],[1,0.5]];portConstraint=eastwest;whiteSpace=wrap;html=1;" vertex="1" parent="kTUbh2zk2raWH5aTBtC5-1">
          <mxGeometry y="130" width="280" height="26" as="geometry" />
        </mxCell>
        <mxCell id="kTUbh2zk2raWH5aTBtC5-12" value="- fcolor:GameColor" style="text;strokeColor=none;fillColor=none;align=left;verticalAlign=top;spacingLeft=4;spacingRight=4;overflow=hidden;rotatable=0;points=[[0,0.5],[1,0.5]];portConstraint=eastwest;whiteSpace=wrap;html=1;" vertex="1" parent="kTUbh2zk2raWH5aTBtC5-1">
          <mxGeometry y="156" width="280" height="26" as="geometry" />
        </mxCell>
        <mxCell id="kTUbh2zk2raWH5aTBtC5-11" value="- fMass:double" style="text;strokeColor=none;fillColor=none;align=left;verticalAlign=top;spacingLeft=4;spacingRight=4;overflow=hidden;rotatable=0;points=[[0,0.5],[1,0.5]];portConstraint=eastwest;whiteSpace=wrap;html=1;" vertex="1" parent="kTUbh2zk2raWH5aTBtC5-1">
          <mxGeometry y="182" width="280" height="26" as="geometry" />
        </mxCell>
        <mxCell id="kTUbh2zk2raWH5aTBtC5-10" value="- friction :double" style="text;strokeColor=none;fillColor=none;align=left;verticalAlign=top;spacingLeft=4;spacingRight=4;overflow=hidden;rotatable=0;points=[[0,0.5],[1,0.5]];portConstraint=eastwest;whiteSpace=wrap;html=1;" vertex="1" parent="kTUbh2zk2raWH5aTBtC5-1">
          <mxGeometry y="208" width="280" height="26" as="geometry" />
        </mxCell>
        <mxCell id="kTUbh2zk2raWH5aTBtC5-9" value="- initialPosX :double&amp;nbsp;" style="text;strokeColor=none;fillColor=none;align=left;verticalAlign=top;spacingLeft=4;spacingRight=4;overflow=hidden;rotatable=0;points=[[0,0.5],[1,0.5]];portConstraint=eastwest;whiteSpace=wrap;html=1;" vertex="1" parent="kTUbh2zk2raWH5aTBtC5-1">
          <mxGeometry y="234" width="280" height="26" as="geometry" />
        </mxCell>
        <mxCell id="kTUbh2zk2raWH5aTBtC5-73" value="" style="endArrow=open;startArrow=circlePlus;endFill=0;startFill=0;endSize=8;html=1;rounded=0;entryX=0.278;entryY=0.01;entryDx=0;entryDy=0;entryPerimeter=0;" edge="1" parent="kTUbh2zk2raWH5aTBtC5-1" target="kTUbh2zk2raWH5aTBtC5-40">
          <mxGeometry width="160" relative="1" as="geometry">
            <mxPoint x="270" y="272.5" as="sourcePoint" />
            <mxPoint x="430" y="272.5" as="targetPoint" />
          </mxGeometry>
        </mxCell>
        <mxCell id="kTUbh2zk2raWH5aTBtC5-8" value="- initialPosY:double" style="text;strokeColor=none;fillColor=none;align=left;verticalAlign=top;spacingLeft=4;spacingRight=4;overflow=hidden;rotatable=0;points=[[0,0.5],[1,0.5]];portConstraint=eastwest;whiteSpace=wrap;html=1;" vertex="1" parent="kTUbh2zk2raWH5aTBtC5-1">
          <mxGeometry y="260" width="280" height="26" as="geometry" />
        </mxCell>
        <mxCell id="kTUbh2zk2raWH5aTBtC5-100" value="Use" style="endArrow=open;endSize=12;dashed=1;html=1;rounded=0;" edge="1" parent="kTUbh2zk2raWH5aTBtC5-1" target="kTUbh2zk2raWH5aTBtC5-72">
          <mxGeometry width="160" relative="1" as="geometry">
            <mxPoint x="280" y="280" as="sourcePoint" />
            <mxPoint x="440" y="280" as="targetPoint" />
          </mxGeometry>
        </mxCell>
        <mxCell id="kTUbh2zk2raWH5aTBtC5-112" value="" style="endArrow=block;startArrow=block;endFill=1;startFill=1;html=1;rounded=0;" edge="1" parent="kTUbh2zk2raWH5aTBtC5-1" target="kTUbh2zk2raWH5aTBtC5-90">
          <mxGeometry width="160" relative="1" as="geometry">
            <mxPoint x="290" y="280" as="sourcePoint" />
            <mxPoint x="450" y="280" as="targetPoint" />
            <Array as="points">
              <mxPoint x="750" y="270" />
            </Array>
          </mxGeometry>
        </mxCell>
        <mxCell id="kTUbh2zk2raWH5aTBtC5-7" value="- fVelX :double" style="text;strokeColor=none;fillColor=none;align=left;verticalAlign=top;spacingLeft=4;spacingRight=4;overflow=hidden;rotatable=0;points=[[0,0.5],[1,0.5]];portConstraint=eastwest;whiteSpace=wrap;html=1;" vertex="1" parent="kTUbh2zk2raWH5aTBtC5-1">
          <mxGeometry y="286" width="280" height="26" as="geometry" />
        </mxCell>
        <mxCell id="kTUbh2zk2raWH5aTBtC5-6" value="- fVelY :double" style="text;strokeColor=none;fillColor=none;align=left;verticalAlign=top;spacingLeft=4;spacingRight=4;overflow=hidden;rotatable=0;points=[[0,0.5],[1,0.5]];portConstraint=eastwest;whiteSpace=wrap;html=1;" vertex="1" parent="kTUbh2zk2raWH5aTBtC5-1">
          <mxGeometry y="312" width="280" height="26" as="geometry" />
        </mxCell>
        <mxCell id="kTUbh2zk2raWH5aTBtC5-5" value="- hitScale:double" style="text;strokeColor=none;fillColor=none;align=left;verticalAlign=top;spacingLeft=4;spacingRight=4;overflow=hidden;rotatable=0;points=[[0,0.5],[1,0.5]];portConstraint=eastwest;whiteSpace=wrap;html=1;" vertex="1" parent="kTUbh2zk2raWH5aTBtC5-1">
          <mxGeometry y="338" width="280" height="26" as="geometry" />
        </mxCell>
        <mxCell id="kTUbh2zk2raWH5aTBtC5-18" value="-&amp;nbsp; fVelY :double" style="text;strokeColor=none;fillColor=none;align=left;verticalAlign=top;spacingLeft=4;spacingRight=4;overflow=hidden;rotatable=0;points=[[0,0.5],[1,0.5]];portConstraint=eastwest;whiteSpace=wrap;html=1;" vertex="1" parent="kTUbh2zk2raWH5aTBtC5-1">
          <mxGeometry y="364" width="280" height="26" as="geometry" />
        </mxCell>
        <mxCell id="kTUbh2zk2raWH5aTBtC5-17" value="- DashLine :double" style="text;strokeColor=none;fillColor=none;align=left;verticalAlign=top;spacingLeft=4;spacingRight=4;overflow=hidden;rotatable=0;points=[[0,0.5],[1,0.5]];portConstraint=eastwest;whiteSpace=wrap;html=1;" vertex="1" parent="kTUbh2zk2raWH5aTBtC5-1">
          <mxGeometry y="390" width="280" height="26" as="geometry" />
        </mxCell>
        <mxCell id="kTUbh2zk2raWH5aTBtC5-3" value="" style="line;strokeWidth=1;fillColor=none;align=left;verticalAlign=middle;spacingTop=-1;spacingLeft=3;spacingRight=3;rotatable=0;labelPosition=right;points=[];portConstraint=eastwest;strokeColor=inherit;" vertex="1" parent="kTUbh2zk2raWH5aTBtC5-1">
          <mxGeometry y="416" width="280" height="8" as="geometry" />
        </mxCell>
        <mxCell id="kTUbh2zk2raWH5aTBtC5-4" value="+ getMass() :double" style="text;strokeColor=none;fillColor=none;align=left;verticalAlign=top;spacingLeft=4;spacingRight=4;overflow=hidden;rotatable=0;points=[[0,0.5],[1,0.5]];portConstraint=eastwest;whiteSpace=wrap;html=1;" vertex="1" parent="kTUbh2zk2raWH5aTBtC5-1">
          <mxGeometry y="424" width="280" height="26" as="geometry" />
        </mxCell>
        <mxCell id="kTUbh2zk2raWH5aTBtC5-32" value="+ isStop()&amp;nbsp; :boolean" style="text;strokeColor=none;fillColor=none;align=left;verticalAlign=top;spacingLeft=4;spacingRight=4;overflow=hidden;rotatable=0;points=[[0,0.5],[1,0.5]];portConstraint=eastwest;whiteSpace=wrap;html=1;" vertex="1" parent="kTUbh2zk2raWH5aTBtC5-1">
          <mxGeometry y="450" width="280" height="26" as="geometry" />
        </mxCell>
        <mxCell id="kTUbh2zk2raWH5aTBtC5-31" value="+ goBackToInitial() :void" style="text;strokeColor=none;fillColor=none;align=left;verticalAlign=top;spacingLeft=4;spacingRight=4;overflow=hidden;rotatable=0;points=[[0,0.5],[1,0.5]];portConstraint=eastwest;whiteSpace=wrap;html=1;" vertex="1" parent="kTUbh2zk2raWH5aTBtC5-1">
          <mxGeometry y="476" width="280" height="26" as="geometry" />
        </mxCell>
        <mxCell id="kTUbh2zk2raWH5aTBtC5-30" value="+ addToGroup() :void" style="text;strokeColor=none;fillColor=none;align=left;verticalAlign=top;spacingLeft=4;spacingRight=4;overflow=hidden;rotatable=0;points=[[0,0.5],[1,0.5]];portConstraint=eastwest;whiteSpace=wrap;html=1;" vertex="1" parent="kTUbh2zk2raWH5aTBtC5-1">
          <mxGeometry y="502" width="280" height="26" as="geometry" />
        </mxCell>
        <mxCell id="kTUbh2zk2raWH5aTBtC5-29" value="+ getYVel() :double" style="text;strokeColor=none;fillColor=none;align=left;verticalAlign=top;spacingLeft=4;spacingRight=4;overflow=hidden;rotatable=0;points=[[0,0.5],[1,0.5]];portConstraint=eastwest;whiteSpace=wrap;html=1;" vertex="1" parent="kTUbh2zk2raWH5aTBtC5-1">
          <mxGeometry y="528" width="280" height="26" as="geometry" />
        </mxCell>
        <mxCell id="kTUbh2zk2raWH5aTBtC5-28" value="+ getXVel() :double" style="text;strokeColor=none;fillColor=none;align=left;verticalAlign=top;spacingLeft=4;spacingRight=4;overflow=hidden;rotatable=0;points=[[0,0.5],[1,0.5]];portConstraint=eastwest;whiteSpace=wrap;html=1;" vertex="1" parent="kTUbh2zk2raWH5aTBtC5-1">
          <mxGeometry y="554" width="280" height="26" as="geometry" />
        </mxCell>
        <mxCell id="kTUbh2zk2raWH5aTBtC5-27" value="+ getYPos() :double" style="text;strokeColor=none;fillColor=none;align=left;verticalAlign=top;spacingLeft=4;spacingRight=4;overflow=hidden;rotatable=0;points=[[0,0.5],[1,0.5]];portConstraint=eastwest;whiteSpace=wrap;html=1;" vertex="1" parent="kTUbh2zk2raWH5aTBtC5-1">
          <mxGeometry y="580" width="280" height="26" as="geometry" />
        </mxCell>
        <mxCell id="kTUbh2zk2raWH5aTBtC5-26" value="+ scaleVel() :double" style="text;strokeColor=none;fillColor=none;align=left;verticalAlign=top;spacingLeft=4;spacingRight=4;overflow=hidden;rotatable=0;points=[[0,0.5],[1,0.5]];portConstraint=eastwest;whiteSpace=wrap;html=1;" vertex="1" parent="kTUbh2zk2raWH5aTBtC5-1">
          <mxGeometry y="606" width="280" height="26" as="geometry" />
        </mxCell>
        <mxCell id="kTUbh2zk2raWH5aTBtC5-25" value="+ handleCollsition() :void" style="text;strokeColor=none;fillColor=none;align=left;verticalAlign=top;spacingLeft=4;spacingRight=4;overflow=hidden;rotatable=0;points=[[0,0.5],[1,0.5]];portConstraint=eastwest;whiteSpace=wrap;html=1;" vertex="1" parent="kTUbh2zk2raWH5aTBtC5-1">
          <mxGeometry y="632" width="280" height="26" as="geometry" />
        </mxCell>
        <mxCell id="kTUbh2zk2raWH5aTBtC5-24" value="+ setYPos():void" style="text;strokeColor=none;fillColor=none;align=left;verticalAlign=top;spacingLeft=4;spacingRight=4;overflow=hidden;rotatable=0;points=[[0,0.5],[1,0.5]];portConstraint=eastwest;whiteSpace=wrap;html=1;" vertex="1" parent="kTUbh2zk2raWH5aTBtC5-1">
          <mxGeometry y="658" width="280" height="26" as="geometry" />
        </mxCell>
        <mxCell id="kTUbh2zk2raWH5aTBtC5-23" value="+ setXPos():void" style="text;strokeColor=none;fillColor=none;align=left;verticalAlign=top;spacingLeft=4;spacingRight=4;overflow=hidden;rotatable=0;points=[[0,0.5],[1,0.5]];portConstraint=eastwest;whiteSpace=wrap;html=1;" vertex="1" parent="kTUbh2zk2raWH5aTBtC5-1">
          <mxGeometry y="684" width="280" height="26" as="geometry" />
        </mxCell>
        <mxCell id="kTUbh2zk2raWH5aTBtC5-22" value="+ PocketBehave()boolean" style="text;strokeColor=none;fillColor=none;align=left;verticalAlign=top;spacingLeft=4;spacingRight=4;overflow=hidden;rotatable=0;points=[[0,0.5],[1,0.5]];portConstraint=eastwest;whiteSpace=wrap;html=1;" vertex="1" parent="kTUbh2zk2raWH5aTBtC5-1">
          <mxGeometry y="710" width="280" height="26" as="geometry" />
        </mxCell>
        <mxCell id="kTUbh2zk2raWH5aTBtC5-21" value="+ reset():void" style="text;strokeColor=none;fillColor=none;align=left;verticalAlign=top;spacingLeft=4;spacingRight=4;overflow=hidden;rotatable=0;points=[[0,0.5],[1,0.5]];portConstraint=eastwest;whiteSpace=wrap;html=1;" vertex="1" parent="kTUbh2zk2raWH5aTBtC5-1">
          <mxGeometry y="736" width="280" height="26" as="geometry" />
        </mxCell>
        <mxCell id="kTUbh2zk2raWH5aTBtC5-20" value="+ AllowHit():void&amp;nbsp;" style="text;strokeColor=none;fillColor=none;align=left;verticalAlign=top;spacingLeft=4;spacingRight=4;overflow=hidden;rotatable=0;points=[[0,0.5],[1,0.5]];portConstraint=eastwest;whiteSpace=wrap;html=1;" vertex="1" parent="kTUbh2zk2raWH5aTBtC5-1">
          <mxGeometry y="762" width="280" height="26" as="geometry" />
        </mxCell>
        <mxCell id="kTUbh2zk2raWH5aTBtC5-19" value="+ registerMouseAction()" style="text;strokeColor=none;fillColor=none;align=left;verticalAlign=top;spacingLeft=4;spacingRight=4;overflow=hidden;rotatable=0;points=[[0,0.5],[1,0.5]];portConstraint=eastwest;whiteSpace=wrap;html=1;" vertex="1" parent="kTUbh2zk2raWH5aTBtC5-1">
          <mxGeometry y="788" width="280" height="26" as="geometry" />
        </mxCell>
        <mxCell id="kTUbh2zk2raWH5aTBtC5-33" value="+ getColor() :GameColor" style="text;strokeColor=none;fillColor=none;align=left;verticalAlign=top;spacingLeft=4;spacingRight=4;overflow=hidden;rotatable=0;points=[[0,0.5],[1,0.5]];portConstraint=eastwest;whiteSpace=wrap;html=1;" vertex="1" parent="kTUbh2zk2raWH5aTBtC5-1">
          <mxGeometry y="814" width="280" height="26" as="geometry" />
        </mxCell>
        <mxCell id="kTUbh2zk2raWH5aTBtC5-34" value="+ getCountOfFallinto()" style="text;strokeColor=none;fillColor=none;align=left;verticalAlign=top;spacingLeft=4;spacingRight=4;overflow=hidden;rotatable=0;points=[[0,0.5],[1,0.5]];portConstraint=eastwest;whiteSpace=wrap;html=1;" vertex="1" parent="kTUbh2zk2raWH5aTBtC5-1">
          <mxGeometry y="840" width="280" height="26" as="geometry" />
        </mxCell>
        <mxCell id="kTUbh2zk2raWH5aTBtC5-35" value="&lt;p style=&quot;margin:0px;margin-top:4px;text-align:center;&quot;&gt;&lt;i&gt;&amp;lt;&amp;lt;Interface&amp;gt;&amp;gt;&lt;/i&gt;&lt;br&gt;&lt;b&gt;Drawable&lt;/b&gt;&lt;/p&gt;&lt;p style=&quot;margin:0px;margin-left:4px;&quot;&gt;&lt;br&gt;&lt;/p&gt;&lt;hr size=&quot;1&quot;&gt;&lt;p style=&quot;margin:0px;margin-left:4px;&quot;&gt;+ getNode(): Node&lt;br&gt;+ addToGroup(): void&lt;/p&gt;" style="verticalAlign=top;align=left;overflow=fill;fontSize=12;fontFamily=Helvetica;html=1;whiteSpace=wrap;" vertex="1" parent="1">
          <mxGeometry x="100" y="520" width="190" height="102" as="geometry" />
        </mxCell>
        <mxCell id="kTUbh2zk2raWH5aTBtC5-36" value="&lt;p style=&quot;margin:0px;margin-top:4px;text-align:center;&quot;&gt;&lt;i&gt;&amp;lt;&amp;lt;Interface&amp;gt;&amp;gt;&lt;/i&gt;&lt;br&gt;&lt;b&gt;Dummy&lt;/b&gt;&lt;/p&gt;&lt;p style=&quot;margin:0px;margin-left:4px;&quot;&gt;&lt;br&gt;&lt;/p&gt;&lt;hr size=&quot;1&quot;&gt;&lt;p style=&quot;margin:0px;margin-left:4px;&quot;&gt;+ addToGroup(): void&lt;br&gt;+ getNode(): Node&lt;/p&gt;" style="verticalAlign=top;align=left;overflow=fill;fontSize=12;fontFamily=Helvetica;html=1;whiteSpace=wrap;" vertex="1" parent="1">
          <mxGeometry x="100" y="350" width="190" height="100" as="geometry" />
        </mxCell>
        <mxCell id="kTUbh2zk2raWH5aTBtC5-37" value="&lt;p style=&quot;margin:0px;margin-top:4px;text-align:center;&quot;&gt;&lt;i&gt;&amp;lt;&amp;lt;Interface&amp;gt;&amp;gt;&lt;/i&gt;&lt;br&gt;&lt;b&gt;Movable&lt;/b&gt;&lt;/p&gt;&lt;p style=&quot;margin:0px;margin-left:4px;&quot;&gt;&lt;br&gt;&lt;/p&gt;&lt;hr size=&quot;1&quot;&gt;&lt;p style=&quot;margin:0px;margin-left:4px;&quot;&gt;+ getXPos(): double&lt;br&gt;+ slowDownForFrictioni(double): void&lt;/p&gt;&lt;p style=&quot;margin:0px;margin-left:4px;&quot;&gt;+ setXVel(double):void&lt;/p&gt;&lt;p style=&quot;margin:0px;margin-left:4px;&quot;&gt;+ DoPocketBehave(List&amp;lt;Circle&amp;gt;):Boolean&lt;/p&gt;&lt;p style=&quot;margin:0px;margin-left:4px;&quot;&gt;+ move():void&lt;/p&gt;&lt;p style=&quot;margin:0px;margin-left:4px;&quot;&gt;+ getYPos():double&lt;/p&gt;&lt;p style=&quot;margin:0px;margin-left:4px;&quot;&gt;+ getXPos():double&lt;/p&gt;&lt;p style=&quot;margin:0px;margin-left:4px;&quot;&gt;+ setXPos(double):void&lt;/p&gt;&lt;p style=&quot;margin:0px;margin-left:4px;&quot;&gt;+ setYPos(double):void&lt;/p&gt;&lt;p style=&quot;margin:0px;margin-left:4px;&quot;&gt;+ getYVel():double&lt;/p&gt;&lt;p style=&quot;margin:0px;margin-left:4px;&quot;&gt;+ getXVel():double&amp;nbsp;&lt;/p&gt;&lt;p style=&quot;margin:0px;margin-left:4px;&quot;&gt;+ handleCollision(List&amp;lt;Movable&amp;gt;,Bounds):void&lt;/p&gt;&lt;p style=&quot;margin:0px;margin-left:4px;&quot;&gt;+ getYVel():double&lt;/p&gt;" style="verticalAlign=top;align=left;overflow=fill;fontSize=12;fontFamily=Helvetica;html=1;whiteSpace=wrap;" vertex="1" parent="1">
          <mxGeometry x="490" y="1520" width="310" height="260" as="geometry" />
        </mxCell>
        <mxCell id="kTUbh2zk2raWH5aTBtC5-40" value="Builder" style="swimlane;fontStyle=1;align=center;verticalAlign=top;childLayout=stackLayout;horizontal=1;startSize=26;horizontalStack=0;resizeParent=1;resizeParentMax=0;resizeLast=0;collapsible=1;marginBottom=0;whiteSpace=wrap;html=1;" vertex="1" parent="1">
          <mxGeometry x="460" y="1200" width="260" height="250" as="geometry" />
        </mxCell>
        <mxCell id="kTUbh2zk2raWH5aTBtC5-41" value="+&amp;nbsp;fcolor&lt;span style=&quot;background-color: initial;&quot;&gt;:&amp;nbsp;&lt;/span&gt;GameColor&lt;br&gt;+ fPosX:double&lt;br&gt;+ fPosY:double&lt;br&gt;+ fVelX:double&lt;br&gt;+ fVelY:double&lt;br&gt;+ fMass:double&lt;br&gt;" style="text;strokeColor=none;fillColor=none;align=left;verticalAlign=top;spacingLeft=4;spacingRight=4;overflow=hidden;rotatable=0;points=[[0,0.5],[1,0.5]];portConstraint=eastwest;whiteSpace=wrap;html=1;" vertex="1" parent="kTUbh2zk2raWH5aTBtC5-40">
          <mxGeometry y="26" width="260" height="94" as="geometry" />
        </mxCell>
        <mxCell id="kTUbh2zk2raWH5aTBtC5-42" value="" style="line;strokeWidth=1;fillColor=none;align=left;verticalAlign=middle;spacingTop=-1;spacingLeft=3;spacingRight=3;rotatable=0;labelPosition=right;points=[];portConstraint=eastwest;strokeColor=inherit;" vertex="1" parent="kTUbh2zk2raWH5aTBtC5-40">
          <mxGeometry y="120" width="260" height="8" as="geometry" />
        </mxCell>
        <mxCell id="kTUbh2zk2raWH5aTBtC5-43" value="+ setCololr(GameColor gameColor): Builder&lt;br&gt;+ setPosX(double) :Builder&lt;br&gt;+ setPosY(double) :Builder&lt;br&gt;+ setVelX (double)&amp;nbsp; :Builder&lt;br&gt;+ setVelY (double) :Builder&lt;br&gt;+ setMass(double) :Builder&lt;br&gt;+ BuildBallFinish() : Ball" style="text;strokeColor=none;fillColor=none;align=left;verticalAlign=top;spacingLeft=4;spacingRight=4;overflow=hidden;rotatable=0;points=[[0,0.5],[1,0.5]];portConstraint=eastwest;whiteSpace=wrap;html=1;" vertex="1" parent="kTUbh2zk2raWH5aTBtC5-40">
          <mxGeometry y="128" width="260" height="122" as="geometry" />
        </mxCell>
        <mxCell id="kTUbh2zk2raWH5aTBtC5-51" value="App" style="swimlane;fontStyle=1;align=center;verticalAlign=top;childLayout=stackLayout;horizontal=1;startSize=26;horizontalStack=0;resizeParent=1;resizeParentMax=0;resizeLast=0;collapsible=1;marginBottom=0;whiteSpace=wrap;html=1;" vertex="1" parent="1">
          <mxGeometry x="1210" y="700" width="160" height="160" as="geometry" />
        </mxCell>
        <mxCell id="kTUbh2zk2raWH5aTBtC5-52" value="- DIM_X: double&lt;br&gt;- TIME:String&lt;br&gt;- DIM_Y:double&lt;br&gt;- FRAMETIME:double" style="text;strokeColor=none;fillColor=none;align=left;verticalAlign=top;spacingLeft=4;spacingRight=4;overflow=hidden;rotatable=0;points=[[0,0.5],[1,0.5]];portConstraint=eastwest;whiteSpace=wrap;html=1;" vertex="1" parent="kTUbh2zk2raWH5aTBtC5-51">
          <mxGeometry y="26" width="160" height="74" as="geometry" />
        </mxCell>
        <mxCell id="kTUbh2zk2raWH5aTBtC5-53" value="" style="line;strokeWidth=1;fillColor=none;align=left;verticalAlign=middle;spacingTop=-1;spacingLeft=3;spacingRight=3;rotatable=0;labelPosition=right;points=[];portConstraint=eastwest;strokeColor=inherit;" vertex="1" parent="kTUbh2zk2raWH5aTBtC5-51">
          <mxGeometry y="100" width="160" height="8" as="geometry" />
        </mxCell>
        <mxCell id="kTUbh2zk2raWH5aTBtC5-54" value="+ start(Stage): void&lt;br&gt;+ main(String[]):void" style="text;strokeColor=none;fillColor=none;align=left;verticalAlign=top;spacingLeft=4;spacingRight=4;overflow=hidden;rotatable=0;points=[[0,0.5],[1,0.5]];portConstraint=eastwest;whiteSpace=wrap;html=1;" vertex="1" parent="kTUbh2zk2raWH5aTBtC5-51">
          <mxGeometry y="108" width="160" height="52" as="geometry" />
        </mxCell>
        <mxCell id="kTUbh2zk2raWH5aTBtC5-69" value="util" style="swimlane;fontStyle=1;align=center;verticalAlign=top;childLayout=stackLayout;horizontal=1;startSize=26;horizontalStack=0;resizeParent=1;resizeParentMax=0;resizeLast=0;collapsible=1;marginBottom=0;whiteSpace=wrap;html=1;" vertex="1" parent="1">
          <mxGeometry x="475" y="1050" width="190" height="80" as="geometry" />
        </mxCell>
        <mxCell id="kTUbh2zk2raWH5aTBtC5-71" value="" style="line;strokeWidth=1;fillColor=none;align=left;verticalAlign=middle;spacingTop=-1;spacingLeft=3;spacingRight=3;rotatable=0;labelPosition=right;points=[];portConstraint=eastwest;strokeColor=inherit;" vertex="1" parent="kTUbh2zk2raWH5aTBtC5-69">
          <mxGeometry y="26" width="190" height="8" as="geometry" />
        </mxCell>
        <mxCell id="kTUbh2zk2raWH5aTBtC5-72" value="+ caculateColission(): Point2D&lt;br&gt;+ processBall2BallCollision() void" style="text;strokeColor=none;fillColor=none;align=left;verticalAlign=top;spacingLeft=4;spacingRight=4;overflow=hidden;rotatable=0;points=[[0,0.5],[1,0.5]];portConstraint=eastwest;whiteSpace=wrap;html=1;" vertex="1" parent="kTUbh2zk2raWH5aTBtC5-69">
          <mxGeometry y="34" width="190" height="46" as="geometry" />
        </mxCell>
        <mxCell id="kTUbh2zk2raWH5aTBtC5-74" value="Extends" style="endArrow=block;endSize=16;endFill=0;html=1;rounded=0;exitX=0.5;exitY=0;exitDx=0;exitDy=0;entryX=0.5;entryY=1;entryDx=0;entryDy=0;" edge="1" parent="1" source="kTUbh2zk2raWH5aTBtC5-35" target="kTUbh2zk2raWH5aTBtC5-36">
          <mxGeometry width="160" relative="1" as="geometry">
            <mxPoint x="500" y="810" as="sourcePoint" />
            <mxPoint x="660" y="810" as="targetPoint" />
          </mxGeometry>
        </mxCell>
        <mxCell id="kTUbh2zk2raWH5aTBtC5-76" value="" style="endArrow=block;dashed=1;endFill=0;endSize=12;html=1;rounded=0;exitX=0;exitY=0.5;exitDx=0;exitDy=0;entryX=0.5;entryY=0;entryDx=0;entryDy=0;" edge="1" parent="1" source="WRi-JUvHWAIsA3Zpq9P--94" target="kTUbh2zk2raWH5aTBtC5-35">
          <mxGeometry width="160" relative="1" as="geometry">
            <mxPoint x="420" y="500" as="sourcePoint" />
            <mxPoint x="580" y="500" as="targetPoint" />
          </mxGeometry>
        </mxCell>
        <mxCell id="kTUbh2zk2raWH5aTBtC5-77" value="" style="endArrow=block;dashed=1;endFill=0;endSize=12;html=1;rounded=0;exitX=0.5;exitY=0;exitDx=0;exitDy=0;entryX=0.5;entryY=1;entryDx=0;entryDy=0;" edge="1" parent="1" source="kTUbh2zk2raWH5aTBtC5-1" target="kTUbh2zk2raWH5aTBtC5-35">
          <mxGeometry width="160" relative="1" as="geometry">
            <mxPoint x="377" y="632" as="sourcePoint" />
            <mxPoint x="90" y="710" as="targetPoint" />
          </mxGeometry>
        </mxCell>
        <mxCell id="kTUbh2zk2raWH5aTBtC5-78" value="" style="endArrow=block;dashed=1;endFill=0;endSize=12;html=1;rounded=0;exitX=1;exitY=0.5;exitDx=0;exitDy=0;entryX=0.004;entryY=0.403;entryDx=0;entryDy=0;entryPerimeter=0;" edge="1" parent="1" source="kTUbh2zk2raWH5aTBtC5-8" target="kTUbh2zk2raWH5aTBtC5-37">
          <mxGeometry width="160" relative="1" as="geometry">
            <mxPoint x="180" y="770" as="sourcePoint" />
            <mxPoint x="510" y="641" as="targetPoint" />
          </mxGeometry>
        </mxCell>
        <mxCell id="kTUbh2zk2raWH5aTBtC5-85" value="" style="group;perimeterSpacing=1;rounded=0;fillColor=#dae8fc;strokeColor=#6c8ebf;glass=1;shadow=1;" vertex="1" connectable="0" parent="1">
          <mxGeometry x="170" y="-510" width="1000" height="360" as="geometry" />
        </mxCell>
        <mxCell id="kTUbh2zk2raWH5aTBtC5-38" value="&lt;p style=&quot;margin:0px;margin-top:4px;text-align:center;&quot;&gt;&lt;b&gt;ConfigReader&lt;/b&gt;&lt;/p&gt;&lt;hr size=&quot;1&quot;&gt;&lt;p style=&quot;margin:0px;margin-left:4px;&quot;&gt;+ MASS_FILED: String&lt;/p&gt;&amp;nbsp;+ VEL_FILED: String&lt;br&gt;&amp;nbsp;+ POS_FILED: String&lt;br&gt;&amp;nbsp;+ BALL_FILED: String&lt;br&gt;&lt;p style=&quot;margin:0px;margin-left:4px;&quot;&gt;+ FRICTION_FILED: String&lt;br&gt;&lt;/p&gt;&lt;p style=&quot;margin:0px;margin-left:4px;&quot;&gt;+ X_FILED: String&lt;br&gt;&lt;/p&gt;&lt;p style=&quot;margin:0px;margin-left:4px;&quot;&gt;+ COLOR_FILED: String&lt;br&gt;&lt;/p&gt;&lt;p style=&quot;margin:0px;margin-left:4px;&quot;&gt;+ Y_FILED: String&lt;br&gt;&lt;/p&gt;&lt;p style=&quot;margin:0px;margin-left:4px;&quot;&gt;+ TABLE_FILED: String&lt;br&gt;&lt;/p&gt;&lt;p style=&quot;margin:0px;margin-left:4px;&quot;&gt;+ SIZE_FILED: String&lt;br&gt;&lt;/p&gt;&lt;p style=&quot;margin:0px;margin-left:4px;&quot;&gt;+ BALLS_FILED: String&lt;/p&gt;&lt;hr size=&quot;1&quot;&gt;&lt;p style=&quot;margin:0px;margin-left:4px;&quot;&gt;+ getBallsFromConfig(): GameObject&lt;/p&gt;&lt;p style=&quot;margin:0px;margin-left:4px;&quot;&gt;+ getColor(String) :GameColor&lt;/p&gt;&lt;p style=&quot;margin:0px;margin-left:4px;&quot;&gt;+ main(String[]) : void&lt;/p&gt;&lt;p style=&quot;margin:0px;margin-left:4px;&quot;&gt;+ getTableFromConfig() GameObject&lt;/p&gt;" style="verticalAlign=top;align=left;overflow=fill;fontSize=12;fontFamily=Helvetica;html=1;whiteSpace=wrap;" vertex="1" parent="kTUbh2zk2raWH5aTBtC5-85">
          <mxGeometry x="640" y="41" width="230" height="278" as="geometry" />
        </mxCell>
        <mxCell id="kTUbh2zk2raWH5aTBtC5-82" value="&lt;h1&gt;建造者模式读取配置&lt;/h1&gt;&lt;p&gt;这里使用了建造这模式读取游戏配置，建立游戏对象&lt;/p&gt;" style="text;html=1;strokeColor=none;fillColor=none;spacing=5;spacingTop=-20;whiteSpace=wrap;overflow=hidden;rounded=0;" vertex="1" parent="kTUbh2zk2raWH5aTBtC5-85">
          <mxGeometry width="1000" height="360" as="geometry" />
        </mxCell>
        <mxCell id="kTUbh2zk2raWH5aTBtC5-84" value="" style="group" vertex="1" connectable="0" parent="kTUbh2zk2raWH5aTBtC5-85">
          <mxGeometry x="30" y="120" width="520" height="160" as="geometry" />
        </mxCell>
        <mxCell id="kTUbh2zk2raWH5aTBtC5-44" value="&lt;p style=&quot;margin:0px;margin-top:4px;text-align:center;&quot;&gt;&lt;b&gt;BaseConfiFactory&lt;/b&gt;&lt;/p&gt;&lt;hr size=&quot;1&quot;&gt;&lt;p style=&quot;margin:0px;margin-left:4px;&quot;&gt;+ &amp;nbsp;CreateGameObject(): GameObject&lt;/p&gt;" style="verticalAlign=top;align=left;overflow=fill;fontSize=12;fontFamily=Helvetica;html=1;whiteSpace=wrap;" vertex="1" parent="kTUbh2zk2raWH5aTBtC5-84">
          <mxGeometry x="130" width="270" height="60" as="geometry" />
        </mxCell>
        <mxCell id="kTUbh2zk2raWH5aTBtC5-45" value="&lt;p style=&quot;margin:0px;margin-top:4px;text-align:center;&quot;&gt;&lt;b&gt;BallFactory&lt;/b&gt;&lt;/p&gt;&lt;hr size=&quot;1&quot;&gt;&lt;p style=&quot;margin:0px;margin-left:4px;&quot;&gt;+ CreateGameObject(): GameObject&lt;/p&gt;" style="verticalAlign=top;align=left;overflow=fill;fontSize=12;fontFamily=Helvetica;html=1;whiteSpace=wrap;" vertex="1" parent="kTUbh2zk2raWH5aTBtC5-84">
          <mxGeometry y="100" width="220" height="60" as="geometry" />
        </mxCell>
        <mxCell id="kTUbh2zk2raWH5aTBtC5-46" value="&lt;p style=&quot;margin:0px;margin-top:4px;text-align:center;&quot;&gt;&lt;b&gt;TableFactoty&lt;/b&gt;&lt;/p&gt;&lt;hr size=&quot;1&quot;&gt;&lt;p style=&quot;margin:0px;margin-left:4px;&quot;&gt;+ CreateGameObject(): GameObject&lt;/p&gt;" style="verticalAlign=top;align=left;overflow=fill;fontSize=12;fontFamily=Helvetica;html=1;whiteSpace=wrap;" vertex="1" parent="kTUbh2zk2raWH5aTBtC5-84">
          <mxGeometry x="300" y="100" width="220" height="60" as="geometry" />
        </mxCell>
        <mxCell id="kTUbh2zk2raWH5aTBtC5-79" value="Extends" style="endArrow=block;endSize=16;endFill=0;html=1;rounded=0;exitX=0.5;exitY=1;exitDx=0;exitDy=0;entryX=0.5;entryY=0;entryDx=0;entryDy=0;" edge="1" parent="kTUbh2zk2raWH5aTBtC5-84" source="kTUbh2zk2raWH5aTBtC5-44" target="kTUbh2zk2raWH5aTBtC5-46">
          <mxGeometry width="160" relative="1" as="geometry">
            <mxPoint x="200" y="200" as="sourcePoint" />
            <mxPoint x="360" y="200" as="targetPoint" />
          </mxGeometry>
        </mxCell>
        <mxCell id="kTUbh2zk2raWH5aTBtC5-80" value="Extends" style="endArrow=block;endSize=16;endFill=0;html=1;rounded=0;exitX=0.526;exitY=1.02;exitDx=0;exitDy=0;exitPerimeter=0;entryX=0.5;entryY=0;entryDx=0;entryDy=0;" edge="1" parent="kTUbh2zk2raWH5aTBtC5-84" source="kTUbh2zk2raWH5aTBtC5-44" target="kTUbh2zk2raWH5aTBtC5-45">
          <mxGeometry width="160" relative="1" as="geometry">
            <mxPoint x="160" y="210" as="sourcePoint" />
            <mxPoint x="320" y="210" as="targetPoint" />
          </mxGeometry>
        </mxCell>
        <mxCell id="kTUbh2zk2raWH5aTBtC5-92" value="" style="group;glass=1;movable=1;resizable=1;rotatable=1;deletable=1;editable=1;locked=0;connectable=1;fillColor=#dae8fc;strokeColor=#6c8ebf;" vertex="1" connectable="0" parent="1">
          <mxGeometry x="950" y="1020" width="1210" height="370" as="geometry" />
        </mxCell>
        <mxCell id="kTUbh2zk2raWH5aTBtC5-55" value="&lt;p style=&quot;margin:0px;margin-top:4px;text-align:center;&quot;&gt;&lt;i&gt;&amp;lt;&amp;lt;Interface&amp;gt;&amp;gt;&lt;/i&gt;&lt;br&gt;&lt;b&gt;IBallPocketStrategy&lt;/b&gt;&lt;/p&gt;&lt;hr size=&quot;1&quot;&gt;&lt;p style=&quot;margin:0px;margin-left:4px;&quot;&gt;+ fallinitPocket(Game,Ball): void&lt;br&gt;&lt;br&gt;&lt;/p&gt;" style="verticalAlign=top;align=left;overflow=fill;fontSize=12;fontFamily=Helvetica;html=1;whiteSpace=wrap;movable=0;resizable=0;rotatable=0;deletable=0;editable=0;locked=1;connectable=0;" vertex="1" parent="kTUbh2zk2raWH5aTBtC5-92">
          <mxGeometry x="325" y="100" width="190" height="74" as="geometry" />
        </mxCell>
        <mxCell id="kTUbh2zk2raWH5aTBtC5-56" value="BlueBallFallIntoPocket" style="swimlane;fontStyle=1;align=center;verticalAlign=top;childLayout=stackLayout;horizontal=1;startSize=26;horizontalStack=0;resizeParent=1;resizeParentMax=0;resizeLast=0;collapsible=1;marginBottom=0;whiteSpace=wrap;html=1;movable=0;resizable=0;rotatable=0;deletable=0;editable=0;locked=1;connectable=0;" vertex="1" parent="kTUbh2zk2raWH5aTBtC5-92">
          <mxGeometry x="65" y="230" width="160" height="60" as="geometry" />
        </mxCell>
        <mxCell id="kTUbh2zk2raWH5aTBtC5-58" value="" style="line;strokeWidth=1;fillColor=none;align=left;verticalAlign=middle;spacingTop=-1;spacingLeft=3;spacingRight=3;rotatable=0;labelPosition=right;points=[];portConstraint=eastwest;strokeColor=inherit;movable=0;resizable=0;deletable=0;editable=0;locked=1;connectable=0;" vertex="1" parent="kTUbh2zk2raWH5aTBtC5-56">
          <mxGeometry y="26" width="160" height="8" as="geometry" />
        </mxCell>
        <mxCell id="kTUbh2zk2raWH5aTBtC5-59" value="+ fallIntoPocket(Game):void" style="text;strokeColor=none;fillColor=none;align=left;verticalAlign=top;spacingLeft=4;spacingRight=4;overflow=hidden;rotatable=0;points=[[0,0.5],[1,0.5]];portConstraint=eastwest;whiteSpace=wrap;html=1;movable=0;resizable=0;deletable=0;editable=0;locked=1;connectable=0;" vertex="1" parent="kTUbh2zk2raWH5aTBtC5-56">
          <mxGeometry y="34" width="160" height="26" as="geometry" />
        </mxCell>
        <mxCell id="kTUbh2zk2raWH5aTBtC5-60" value="WhiteBallFallI" style="swimlane;fontStyle=1;align=center;verticalAlign=top;childLayout=stackLayout;horizontal=1;startSize=26;horizontalStack=0;resizeParent=1;resizeParentMax=0;resizeLast=0;collapsible=1;marginBottom=0;whiteSpace=wrap;html=1;movable=0;resizable=0;rotatable=0;deletable=0;editable=0;locked=1;connectable=0;" vertex="1" parent="kTUbh2zk2raWH5aTBtC5-92">
          <mxGeometry x="242" y="230" width="160" height="60" as="geometry" />
        </mxCell>
        <mxCell id="kTUbh2zk2raWH5aTBtC5-61" value="" style="line;strokeWidth=1;fillColor=none;align=left;verticalAlign=middle;spacingTop=-1;spacingLeft=3;spacingRight=3;rotatable=0;labelPosition=right;points=[];portConstraint=eastwest;strokeColor=inherit;movable=0;resizable=0;deletable=0;editable=0;locked=1;connectable=0;" vertex="1" parent="kTUbh2zk2raWH5aTBtC5-60">
          <mxGeometry y="26" width="160" height="8" as="geometry" />
        </mxCell>
        <mxCell id="kTUbh2zk2raWH5aTBtC5-62" value="+ fallIntoPocket(Game):void" style="text;strokeColor=none;fillColor=none;align=left;verticalAlign=top;spacingLeft=4;spacingRight=4;overflow=hidden;rotatable=0;points=[[0,0.5],[1,0.5]];portConstraint=eastwest;whiteSpace=wrap;html=1;movable=0;resizable=0;deletable=0;editable=0;locked=1;connectable=0;" vertex="1" parent="kTUbh2zk2raWH5aTBtC5-60">
          <mxGeometry y="34" width="160" height="26" as="geometry" />
        </mxCell>
        <mxCell id="kTUbh2zk2raWH5aTBtC5-63" value="LastBallFallIntoPocket" style="swimlane;fontStyle=1;align=center;verticalAlign=top;childLayout=stackLayout;horizontal=1;startSize=26;horizontalStack=0;resizeParent=1;resizeParentMax=0;resizeLast=0;collapsible=1;marginBottom=0;whiteSpace=wrap;html=1;movable=0;resizable=0;rotatable=0;deletable=0;editable=0;locked=1;connectable=0;" vertex="1" parent="kTUbh2zk2raWH5aTBtC5-92">
          <mxGeometry x="415" y="230" width="160" height="60" as="geometry" />
        </mxCell>
        <mxCell id="kTUbh2zk2raWH5aTBtC5-64" value="" style="line;strokeWidth=1;fillColor=none;align=left;verticalAlign=middle;spacingTop=-1;spacingLeft=3;spacingRight=3;rotatable=0;labelPosition=right;points=[];portConstraint=eastwest;strokeColor=inherit;movable=0;resizable=0;deletable=0;editable=0;locked=1;connectable=0;" vertex="1" parent="kTUbh2zk2raWH5aTBtC5-63">
          <mxGeometry y="26" width="160" height="8" as="geometry" />
        </mxCell>
        <mxCell id="kTUbh2zk2raWH5aTBtC5-65" value="+ fallIntoPocket(Game):void" style="text;strokeColor=none;fillColor=none;align=left;verticalAlign=top;spacingLeft=4;spacingRight=4;overflow=hidden;rotatable=0;points=[[0,0.5],[1,0.5]];portConstraint=eastwest;whiteSpace=wrap;html=1;movable=0;resizable=0;deletable=0;editable=0;locked=1;connectable=0;" vertex="1" parent="kTUbh2zk2raWH5aTBtC5-63">
          <mxGeometry y="34" width="160" height="26" as="geometry" />
        </mxCell>
        <mxCell id="kTUbh2zk2raWH5aTBtC5-66" value="RedBallFallIntoPocket" style="swimlane;fontStyle=1;align=center;verticalAlign=top;childLayout=stackLayout;horizontal=1;startSize=26;horizontalStack=0;resizeParent=1;resizeParentMax=0;resizeLast=0;collapsible=1;marginBottom=0;whiteSpace=wrap;html=1;movable=0;resizable=0;rotatable=0;deletable=0;editable=0;locked=1;connectable=0;" vertex="1" parent="kTUbh2zk2raWH5aTBtC5-92">
          <mxGeometry x="585" y="230" width="160" height="60" as="geometry" />
        </mxCell>
        <mxCell id="kTUbh2zk2raWH5aTBtC5-67" value="" style="line;strokeWidth=1;fillColor=none;align=left;verticalAlign=middle;spacingTop=-1;spacingLeft=3;spacingRight=3;rotatable=0;labelPosition=right;points=[];portConstraint=eastwest;strokeColor=inherit;movable=0;resizable=0;deletable=0;editable=0;locked=1;connectable=0;" vertex="1" parent="kTUbh2zk2raWH5aTBtC5-66">
          <mxGeometry y="26" width="160" height="8" as="geometry" />
        </mxCell>
        <mxCell id="kTUbh2zk2raWH5aTBtC5-68" value="+ fallIntoPocket(Game):void" style="text;strokeColor=none;fillColor=none;align=left;verticalAlign=top;spacingLeft=4;spacingRight=4;overflow=hidden;rotatable=0;points=[[0,0.5],[1,0.5]];portConstraint=eastwest;whiteSpace=wrap;html=1;movable=0;resizable=0;deletable=0;editable=0;locked=1;connectable=0;" vertex="1" parent="kTUbh2zk2raWH5aTBtC5-66">
          <mxGeometry y="34" width="160" height="26" as="geometry" />
        </mxCell>
        <mxCell id="kTUbh2zk2raWH5aTBtC5-86" value="" style="endArrow=block;dashed=1;endFill=0;endSize=12;html=1;rounded=0;exitX=0;exitY=1;exitDx=0;exitDy=0;entryX=0.5;entryY=0;entryDx=0;entryDy=0;movable=0;resizable=0;rotatable=0;deletable=0;editable=0;locked=1;connectable=0;" edge="1" parent="kTUbh2zk2raWH5aTBtC5-92" source="kTUbh2zk2raWH5aTBtC5-55" target="kTUbh2zk2raWH5aTBtC5-56">
          <mxGeometry width="160" relative="1" as="geometry">
            <mxPoint x="205" y="148" as="sourcePoint" />
            <mxPoint x="326" y="60" as="targetPoint" />
          </mxGeometry>
        </mxCell>
        <mxCell id="kTUbh2zk2raWH5aTBtC5-87" value="" style="endArrow=block;dashed=1;endFill=0;endSize=12;html=1;rounded=0;exitX=0.5;exitY=1;exitDx=0;exitDy=0;entryX=0.5;entryY=0;entryDx=0;entryDy=0;movable=0;resizable=0;rotatable=0;deletable=0;editable=0;locked=1;connectable=0;" edge="1" parent="kTUbh2zk2raWH5aTBtC5-92" source="kTUbh2zk2raWH5aTBtC5-55" target="kTUbh2zk2raWH5aTBtC5-60">
          <mxGeometry width="160" relative="1" as="geometry">
            <mxPoint x="355" y="184" as="sourcePoint" />
            <mxPoint x="155" y="240" as="targetPoint" />
          </mxGeometry>
        </mxCell>
        <mxCell id="kTUbh2zk2raWH5aTBtC5-88" value="" style="endArrow=block;dashed=1;endFill=0;endSize=12;html=1;rounded=0;exitX=0.5;exitY=1;exitDx=0;exitDy=0;entryX=0.5;entryY=0;entryDx=0;entryDy=0;movable=0;resizable=0;rotatable=0;deletable=0;editable=0;locked=1;connectable=0;" edge="1" parent="kTUbh2zk2raWH5aTBtC5-92" source="kTUbh2zk2raWH5aTBtC5-55" target="kTUbh2zk2raWH5aTBtC5-63">
          <mxGeometry width="160" relative="1" as="geometry">
            <mxPoint x="365" y="194" as="sourcePoint" />
            <mxPoint x="165" y="250" as="targetPoint" />
          </mxGeometry>
        </mxCell>
        <mxCell id="kTUbh2zk2raWH5aTBtC5-89" value="" style="endArrow=block;dashed=1;endFill=0;endSize=12;html=1;rounded=0;exitX=1;exitY=1;exitDx=0;exitDy=0;entryX=0.5;entryY=0;entryDx=0;entryDy=0;movable=0;resizable=0;rotatable=0;deletable=0;editable=0;locked=1;connectable=0;" edge="1" parent="kTUbh2zk2raWH5aTBtC5-92" source="kTUbh2zk2raWH5aTBtC5-55" target="kTUbh2zk2raWH5aTBtC5-66">
          <mxGeometry width="160" relative="1" as="geometry">
            <mxPoint x="375" y="204" as="sourcePoint" />
            <mxPoint x="175" y="260" as="targetPoint" />
          </mxGeometry>
        </mxCell>
        <mxCell id="kTUbh2zk2raWH5aTBtC5-90" value="&lt;h1&gt;策略模式控制球进洞后的行为&lt;/h1&gt;" style="text;html=1;spacing=5;spacingTop=-20;whiteSpace=wrap;overflow=hidden;rounded=0;container=1;glass=1;movable=1;resizable=1;rotatable=1;deletable=1;editable=1;locked=0;connectable=1;" vertex="1" parent="kTUbh2zk2raWH5aTBtC5-92">
          <mxGeometry x="10" y="-10" width="1200" height="370" as="geometry" />
        </mxCell>
        <mxCell id="kTUbh2zk2raWH5aTBtC5-93" value="GameStrategyContext" style="swimlane;fontStyle=1;align=center;verticalAlign=top;childLayout=stackLayout;horizontal=1;startSize=26;horizontalStack=0;resizeParent=1;resizeParentMax=0;resizeLast=0;collapsible=1;marginBottom=0;whiteSpace=wrap;html=1;" vertex="1" parent="kTUbh2zk2raWH5aTBtC5-90">
          <mxGeometry x="800" y="144" width="290" height="110" as="geometry" />
        </mxCell>
        <mxCell id="kTUbh2zk2raWH5aTBtC5-94" value="+ strtegy :IBallPocketStrtegy" style="text;strokeColor=none;fillColor=none;align=left;verticalAlign=top;spacingLeft=4;spacingRight=4;overflow=hidden;rotatable=0;points=[[0,0.5],[1,0.5]];portConstraint=eastwest;whiteSpace=wrap;html=1;" vertex="1" parent="kTUbh2zk2raWH5aTBtC5-93">
          <mxGeometry y="26" width="290" height="26" as="geometry" />
        </mxCell>
        <mxCell id="kTUbh2zk2raWH5aTBtC5-95" value="" style="line;strokeWidth=1;fillColor=none;align=left;verticalAlign=middle;spacingTop=-1;spacingLeft=3;spacingRight=3;rotatable=0;labelPosition=right;points=[];portConstraint=eastwest;strokeColor=inherit;" vertex="1" parent="kTUbh2zk2raWH5aTBtC5-93">
          <mxGeometry y="52" width="290" height="8" as="geometry" />
        </mxCell>
        <mxCell id="kTUbh2zk2raWH5aTBtC5-96" value="+ setStrtegy(IBallPocketStrategy): void&lt;br&gt;+ executeStrategy(Game,Ball) :void" style="text;strokeColor=none;fillColor=none;align=left;verticalAlign=top;spacingLeft=4;spacingRight=4;overflow=hidden;rotatable=0;points=[[0,0.5],[1,0.5]];portConstraint=eastwest;whiteSpace=wrap;html=1;" vertex="1" parent="kTUbh2zk2raWH5aTBtC5-93">
          <mxGeometry y="60" width="290" height="50" as="geometry" />
        </mxCell>
        <mxCell id="kTUbh2zk2raWH5aTBtC5-101" value="" style="endArrow=diamondThin;endFill=1;endSize=24;html=1;rounded=0;entryX=-0.005;entryY=1.154;entryDx=0;entryDy=0;exitX=1;exitY=0.5;exitDx=0;exitDy=0;entryPerimeter=0;" edge="1" parent="1" source="kTUbh2zk2raWH5aTBtC5-2" target="WRi-JUvHWAIsA3Zpq9P--59">
          <mxGeometry width="160" relative="1" as="geometry">
            <mxPoint x="300" y="790" as="sourcePoint" />
            <mxPoint x="460" y="790" as="targetPoint" />
          </mxGeometry>
        </mxCell>
        <mxCell id="kTUbh2zk2raWH5aTBtC5-102" value="" style="endArrow=diamondThin;endFill=1;endSize=24;html=1;rounded=0;exitX=0.488;exitY=1.101;exitDx=0;exitDy=0;exitPerimeter=0;entryX=1.005;entryY=0.067;entryDx=0;entryDy=0;entryPerimeter=0;" edge="1" parent="1" source="WRi-JUvHWAIsA3Zpq9P--93" target="WRi-JUvHWAIsA3Zpq9P--45">
          <mxGeometry width="160" relative="1" as="geometry">
            <mxPoint x="290" y="640" as="sourcePoint" />
            <mxPoint x="450" y="640" as="targetPoint" />
          </mxGeometry>
        </mxCell>
        <mxCell id="kTUbh2zk2raWH5aTBtC5-103" value="" style="endArrow=diamondThin;endFill=1;endSize=24;html=1;rounded=0;exitX=0.99;exitY=1.069;exitDx=0;exitDy=0;exitPerimeter=0;entryX=-0.005;entryY=0.891;entryDx=0;entryDy=0;entryPerimeter=0;" edge="1" parent="1" source="WRi-JUvHWAIsA3Zpq9P--76" target="WRi-JUvHWAIsA3Zpq9P--60">
          <mxGeometry width="160" relative="1" as="geometry">
            <mxPoint x="240" y="660" as="sourcePoint" />
            <mxPoint x="400" y="660" as="targetPoint" />
          </mxGeometry>
        </mxCell>
        <mxCell id="kTUbh2zk2raWH5aTBtC5-106" value="Use" style="endArrow=open;endSize=12;dashed=1;html=1;rounded=0;exitX=1;exitY=0;exitDx=0;exitDy=0;" edge="1" parent="1" source="WRi-JUvHWAIsA3Zpq9P--80" target="kTUbh2zk2raWH5aTBtC5-46">
          <mxGeometry x="-0.0043" width="160" relative="1" as="geometry">
            <mxPoint x="590" y="201.2" as="sourcePoint" />
            <mxPoint x="680" y="215.99661016949102" as="targetPoint" />
            <mxPoint as="offset" />
          </mxGeometry>
        </mxCell>
        <mxCell id="kTUbh2zk2raWH5aTBtC5-107" value="Use" style="endArrow=open;endSize=12;dashed=1;html=1;rounded=0;exitX=0.5;exitY=0;exitDx=0;exitDy=0;" edge="1" parent="1" source="WRi-JUvHWAIsA3Zpq9P--70" target="kTUbh2zk2raWH5aTBtC5-45">
          <mxGeometry width="160" relative="1" as="geometry">
            <mxPoint x="150" y="-30" as="sourcePoint" />
            <mxPoint x="310" y="-30" as="targetPoint" />
          </mxGeometry>
        </mxCell>
        <mxCell id="kTUbh2zk2raWH5aTBtC5-108" value="" style="endArrow=diamondThin;endFill=1;endSize=24;html=1;rounded=0;entryX=0.01;entryY=1.043;entryDx=0;entryDy=0;entryPerimeter=0;" edge="1" parent="1" target="kTUbh2zk2raWH5aTBtC5-52">
          <mxGeometry width="160" relative="1" as="geometry">
            <mxPoint x="880" y="770" as="sourcePoint" />
            <mxPoint x="1040" y="770" as="targetPoint" />
          </mxGeometry>
        </mxCell>
        <mxCell id="kTUbh2zk2raWH5aTBtC5-111" value="" style="endArrow=diamondThin;endFill=0;endSize=24;html=1;rounded=0;entryX=0;entryY=0.5;entryDx=0;entryDy=0;exitX=0;exitY=0;exitDx=0;exitDy=0;" edge="1" parent="1" source="kTUbh2zk2raWH5aTBtC5-1" target="WRi-JUvHWAIsA3Zpq9P--76">
          <mxGeometry width="160" relative="1" as="geometry">
            <mxPoint x="40" y="730" as="sourcePoint" />
            <mxPoint x="200" y="730" as="targetPoint" />
          </mxGeometry>
        </mxCell>
      </root>
    </mxGraphModel>
  </diagram>
</mxfile>
